<mxfile host="app.diagrams.net" modified="2023-05-01T14:35:06.436Z" agent="Mozilla/5.0 (Windows NT 10.0; Win64; x64) AppleWebKit/537.36 (KHTML, like Gecko) Chrome/112.0.0.0 Safari/537.36" etag="djSlob5gh-bPguN2Hpfc" version="21.2.1" type="device">
  <diagram name="Page-1" id="3HmN753BkA0CwOPUJrMB">
    <mxGraphModel dx="1635" dy="284" grid="1" gridSize="10" guides="1" tooltips="1" connect="1" arrows="1" fold="1" page="0" pageScale="1" pageWidth="850" pageHeight="1100" background="#FFFFFF" math="0" shadow="0">
      <root>
        <mxCell id="0" />
        <mxCell id="1" parent="0" />
        <mxCell id="k8yUKYC-vGAlN-Fj5_3C-19" value="" style="rounded=0;whiteSpace=wrap;html=1;" parent="1" vertex="1">
          <mxGeometry x="-40" y="570" width="1180" height="390" as="geometry" />
        </mxCell>
        <mxCell id="vZ2ydYzsc5JivmFkv1yq-15" value="Aphluentia++" style="verticalAlign=top;align=left;spacingTop=8;spacingLeft=2;spacingRight=12;shape=cube;size=10;direction=south;fontStyle=4;html=1;whiteSpace=wrap;fillColor=#d5e8d4;strokeColor=#82b366;" vertex="1" parent="1">
          <mxGeometry x="690" y="780" width="380" height="159" as="geometry" />
        </mxCell>
        <mxCell id="vZ2ydYzsc5JivmFkv1yq-44" style="edgeStyle=orthogonalEdgeStyle;rounded=0;orthogonalLoop=1;jettySize=auto;html=1;" edge="1" parent="1" source="k8yUKYC-vGAlN-Fj5_3C-21" target="vZ2ydYzsc5JivmFkv1yq-1">
          <mxGeometry relative="1" as="geometry" />
        </mxCell>
        <mxCell id="k8yUKYC-vGAlN-Fj5_3C-21" value="External&lt;br&gt;Modules" style="shape=umlFrame;whiteSpace=wrap;html=1;fillColor=#dae8fc;strokeColor=#6c8ebf;strokeWidth=3;" parent="1" vertex="1">
          <mxGeometry x="-20" y="610" width="240" height="320" as="geometry" />
        </mxCell>
        <mxCell id="k8yUKYC-vGAlN-Fj5_3C-47" value="" style="edgeStyle=orthogonalEdgeStyle;rounded=0;orthogonalLoop=1;jettySize=auto;html=1;" parent="1" source="k8yUKYC-vGAlN-Fj5_3C-22" target="k8yUKYC-vGAlN-Fj5_3C-23" edge="1">
          <mxGeometry relative="1" as="geometry" />
        </mxCell>
        <mxCell id="k8yUKYC-vGAlN-Fj5_3C-22" value="" style="shape=cylinder3;whiteSpace=wrap;html=1;boundedLbl=1;backgroundOutline=1;size=15;fillColor=#647687;strokeColor=#80ffff;fontColor=#ffffff;" parent="1" vertex="1">
          <mxGeometry x="450" y="830" width="60" height="80" as="geometry" />
        </mxCell>
        <mxCell id="k8yUKYC-vGAlN-Fj5_3C-26" style="edgeStyle=orthogonalEdgeStyle;rounded=0;orthogonalLoop=1;jettySize=auto;html=1;entryX=0.5;entryY=0;entryDx=0;entryDy=0;entryPerimeter=0;" parent="1" source="k8yUKYC-vGAlN-Fj5_3C-23" target="k8yUKYC-vGAlN-Fj5_3C-22" edge="1">
          <mxGeometry relative="1" as="geometry" />
        </mxCell>
        <mxCell id="k8yUKYC-vGAlN-Fj5_3C-23" value="&lt;font style=&quot;font-size: 12px;&quot;&gt;DatabaseAPI&lt;br&gt;&lt;/font&gt;" style="rounded=1;whiteSpace=wrap;html=1;fillColor=#d5e8d4;strokeColor=#82b366;" parent="1" vertex="1">
          <mxGeometry x="412.5" y="740" width="135" height="50" as="geometry" />
        </mxCell>
        <mxCell id="k8yUKYC-vGAlN-Fj5_3C-65" value="Aphluentia&lt;br&gt;Mobile App" style="shape=ext;double=1;rounded=1;whiteSpace=wrap;html=1;fillColor=#fff2cc;strokeColor=#d6b656;" parent="1" vertex="1">
          <mxGeometry x="32.5" y="650" width="137.5" height="42" as="geometry" />
        </mxCell>
        <mxCell id="k8yUKYC-vGAlN-Fj5_3C-66" value="What a Nice Gesture" style="shape=ext;double=1;rounded=1;whiteSpace=wrap;html=1;fillColor=#fff2cc;strokeColor=#d6b656;" parent="1" vertex="1">
          <mxGeometry x="32.5" y="703.63" width="137.5" height="42" as="geometry" />
        </mxCell>
        <mxCell id="k8yUKYC-vGAlN-Fj5_3C-67" value="Mobihealth &lt;br&gt;(Speech Analysis)" style="shape=ext;double=1;rounded=1;whiteSpace=wrap;html=1;fillColor=#fff2cc;strokeColor=#d6b656;" parent="1" vertex="1">
          <mxGeometry x="35" y="760" width="135" height="60" as="geometry" />
        </mxCell>
        <mxCell id="SjMHyeGWCHjc_9bX7ADS-14" style="edgeStyle=orthogonalEdgeStyle;rounded=0;orthogonalLoop=1;jettySize=auto;html=1;entryX=1;entryY=0.5;entryDx=0;entryDy=0;strokeWidth=1;exitX=0;exitY=0.5;exitDx=0;exitDy=0;" parent="1" source="vZ2ydYzsc5JivmFkv1yq-16" target="k8yUKYC-vGAlN-Fj5_3C-23" edge="1">
          <mxGeometry relative="1" as="geometry">
            <mxPoint x="690" y="895.0588235294119" as="sourcePoint" />
          </mxGeometry>
        </mxCell>
        <mxCell id="SjMHyeGWCHjc_9bX7ADS-15" style="edgeStyle=orthogonalEdgeStyle;rounded=0;orthogonalLoop=1;jettySize=auto;html=1;entryX=0.5;entryY=1;entryDx=0;entryDy=0;strokeWidth=1;" parent="1" source="SjMHyeGWCHjc_9bX7ADS-8" edge="1">
          <mxGeometry relative="1" as="geometry">
            <mxPoint x="795" y="850" as="targetPoint" />
          </mxGeometry>
        </mxCell>
        <mxCell id="vZ2ydYzsc5JivmFkv1yq-40" style="edgeStyle=orthogonalEdgeStyle;rounded=0;orthogonalLoop=1;jettySize=auto;html=1;entryX=0;entryY=0.5;entryDx=0;entryDy=0;" edge="1" parent="1" source="SjMHyeGWCHjc_9bX7ADS-9" target="vZ2ydYzsc5JivmFkv1yq-10">
          <mxGeometry relative="1" as="geometry" />
        </mxCell>
        <mxCell id="SjMHyeGWCHjc_9bX7ADS-9" value="" style="sketch=0;outlineConnect=0;fontColor=#232F3E;gradientColor=none;fillColor=#B0084D;strokeColor=none;dashed=0;verticalLabelPosition=bottom;verticalAlign=top;align=center;html=1;fontSize=12;fontStyle=0;aspect=fixed;pointerEvents=1;shape=mxgraph.aws4.mq_broker;" parent="1" vertex="1">
          <mxGeometry x="580" y="625.63" width="78" height="78" as="geometry" />
        </mxCell>
        <mxCell id="vZ2ydYzsc5JivmFkv1yq-41" style="edgeStyle=orthogonalEdgeStyle;rounded=0;orthogonalLoop=1;jettySize=auto;html=1;" edge="1" parent="1" source="vZ2ydYzsc5JivmFkv1yq-1" target="k8yUKYC-vGAlN-Fj5_3C-23">
          <mxGeometry relative="1" as="geometry" />
        </mxCell>
        <mxCell id="vZ2ydYzsc5JivmFkv1yq-1" value="&lt;font style=&quot;font-size: 19px;&quot;&gt;AbstractionLevelAPI&lt;/font&gt;" style="rounded=1;whiteSpace=wrap;html=1;fillColor=#d5e8d4;strokeColor=#82b366;rotation=-90;" vertex="1" parent="1">
          <mxGeometry x="187.5" y="703.63" width="255" height="90" as="geometry" />
        </mxCell>
        <mxCell id="vZ2ydYzsc5JivmFkv1yq-9" value="BridgeModule" style="verticalAlign=top;align=left;spacingTop=8;spacingLeft=2;spacingRight=12;shape=cube;size=10;direction=south;fontStyle=4;html=1;whiteSpace=wrap;fillColor=#d5e8d4;strokeColor=#82b366;" vertex="1" parent="1">
          <mxGeometry x="700" y="581" width="290" height="159" as="geometry" />
        </mxCell>
        <mxCell id="vZ2ydYzsc5JivmFkv1yq-12" style="edgeStyle=orthogonalEdgeStyle;rounded=0;orthogonalLoop=1;jettySize=auto;html=1;entryX=0;entryY=0.5;entryDx=0;entryDy=0;" edge="1" parent="1" source="vZ2ydYzsc5JivmFkv1yq-10" target="vZ2ydYzsc5JivmFkv1yq-11">
          <mxGeometry relative="1" as="geometry" />
        </mxCell>
        <mxCell id="vZ2ydYzsc5JivmFkv1yq-10" value="KafkaConsumer" style="rounded=1;whiteSpace=wrap;html=1;fillColor=#1ba1e2;strokeColor=#006EAF;fontColor=#ffffff;" vertex="1" parent="1">
          <mxGeometry x="710" y="617.5" width="110" height="44.5" as="geometry" />
        </mxCell>
        <mxCell id="vZ2ydYzsc5JivmFkv1yq-11" value="MessageHandler" style="rounded=1;whiteSpace=wrap;html=1;fillColor=#1ba1e2;strokeColor=#006EAF;fontColor=#ffffff;" vertex="1" parent="1">
          <mxGeometry x="850" y="617.5" width="110" height="44.5" as="geometry" />
        </mxCell>
        <mxCell id="vZ2ydYzsc5JivmFkv1yq-14" style="edgeStyle=orthogonalEdgeStyle;rounded=0;orthogonalLoop=1;jettySize=auto;html=1;entryX=0.5;entryY=1;entryDx=0;entryDy=0;" edge="1" parent="1" source="vZ2ydYzsc5JivmFkv1yq-13" target="vZ2ydYzsc5JivmFkv1yq-11">
          <mxGeometry relative="1" as="geometry">
            <Array as="points">
              <mxPoint x="840" y="670" />
              <mxPoint x="905" y="670" />
            </Array>
          </mxGeometry>
        </mxCell>
        <mxCell id="vZ2ydYzsc5JivmFkv1yq-13" value="BridgeAPI" style="rounded=1;whiteSpace=wrap;html=1;fillColor=#1ba1e2;strokeColor=#006EAF;fontColor=#ffffff;" vertex="1" parent="1">
          <mxGeometry x="710" y="682" width="250" height="44.5" as="geometry" />
        </mxCell>
        <mxCell id="vZ2ydYzsc5JivmFkv1yq-19" style="edgeStyle=orthogonalEdgeStyle;rounded=0;orthogonalLoop=1;jettySize=auto;html=1;" edge="1" parent="1" source="vZ2ydYzsc5JivmFkv1yq-16" target="vZ2ydYzsc5JivmFkv1yq-17">
          <mxGeometry relative="1" as="geometry" />
        </mxCell>
        <mxCell id="vZ2ydYzsc5JivmFkv1yq-16" value="&lt;font style=&quot;font-size: 16px;&quot;&gt;Backend&lt;/font&gt;" style="rounded=1;whiteSpace=wrap;html=1;fillColor=#1ba1e2;strokeColor=#006EAF;fontColor=#ffffff;" vertex="1" parent="1">
          <mxGeometry x="710" y="820" width="150" height="100" as="geometry" />
        </mxCell>
        <mxCell id="vZ2ydYzsc5JivmFkv1yq-18" style="edgeStyle=orthogonalEdgeStyle;rounded=0;orthogonalLoop=1;jettySize=auto;html=1;entryX=0.5;entryY=1;entryDx=0;entryDy=0;" edge="1" parent="1" source="vZ2ydYzsc5JivmFkv1yq-17" target="vZ2ydYzsc5JivmFkv1yq-13">
          <mxGeometry relative="1" as="geometry" />
        </mxCell>
        <mxCell id="vZ2ydYzsc5JivmFkv1yq-20" style="edgeStyle=orthogonalEdgeStyle;rounded=0;orthogonalLoop=1;jettySize=auto;html=1;entryX=1;entryY=0.5;entryDx=0;entryDy=0;" edge="1" parent="1" source="vZ2ydYzsc5JivmFkv1yq-17" target="vZ2ydYzsc5JivmFkv1yq-16">
          <mxGeometry relative="1" as="geometry" />
        </mxCell>
        <mxCell id="vZ2ydYzsc5JivmFkv1yq-17" value="&lt;font style=&quot;font-size: 16px;&quot;&gt;Frontend&lt;/font&gt;" style="rounded=1;whiteSpace=wrap;html=1;fillColor=#1ba1e2;strokeColor=#006EAF;fontColor=#ffffff;" vertex="1" parent="1">
          <mxGeometry x="890" y="820" width="150" height="100" as="geometry" />
        </mxCell>
        <mxCell id="vZ2ydYzsc5JivmFkv1yq-35" value="BrokerAPI" style="verticalAlign=top;align=left;spacingTop=8;spacingLeft=2;spacingRight=12;shape=cube;size=10;direction=south;fontStyle=4;html=1;whiteSpace=wrap;fillColor=#d5e8d4;strokeColor=#82b366;" vertex="1" parent="1">
          <mxGeometry x="400" y="581" width="160" height="139" as="geometry" />
        </mxCell>
        <mxCell id="vZ2ydYzsc5JivmFkv1yq-38" style="edgeStyle=orthogonalEdgeStyle;rounded=0;orthogonalLoop=1;jettySize=auto;html=1;entryX=0.5;entryY=0;entryDx=0;entryDy=0;" edge="1" parent="1" source="vZ2ydYzsc5JivmFkv1yq-36" target="vZ2ydYzsc5JivmFkv1yq-37">
          <mxGeometry relative="1" as="geometry" />
        </mxCell>
        <mxCell id="vZ2ydYzsc5JivmFkv1yq-36" value="BrokerAPI" style="rounded=1;whiteSpace=wrap;html=1;fillColor=#1ba1e2;strokeColor=#006EAF;fontColor=#ffffff;rotation=-90;" vertex="1" parent="1">
          <mxGeometry x="388.87" y="643.13" width="90" height="43" as="geometry" />
        </mxCell>
        <mxCell id="vZ2ydYzsc5JivmFkv1yq-39" style="edgeStyle=orthogonalEdgeStyle;rounded=0;orthogonalLoop=1;jettySize=auto;html=1;" edge="1" parent="1" source="vZ2ydYzsc5JivmFkv1yq-37" target="SjMHyeGWCHjc_9bX7ADS-9">
          <mxGeometry relative="1" as="geometry" />
        </mxCell>
        <mxCell id="vZ2ydYzsc5JivmFkv1yq-37" value="KafkaProducer" style="rounded=1;whiteSpace=wrap;html=1;fillColor=#1ba1e2;strokeColor=#006EAF;fontColor=#ffffff;rotation=-90;" vertex="1" parent="1">
          <mxGeometry x="463.87" y="643.13" width="90" height="43" as="geometry" />
        </mxCell>
        <mxCell id="SjMHyeGWCHjc_9bX7ADS-2" value="" style="endArrow=none;dashed=1;html=1;rounded=0;strokeWidth=4;fillColor=#d5e8d4;strokeColor=#82b366;" parent="1" edge="1">
          <mxGeometry width="50" height="50" relative="1" as="geometry">
            <mxPoint x="270" y="960" as="sourcePoint" />
            <mxPoint x="270" y="570" as="targetPoint" />
          </mxGeometry>
        </mxCell>
        <mxCell id="vZ2ydYzsc5JivmFkv1yq-42" style="edgeStyle=orthogonalEdgeStyle;rounded=0;orthogonalLoop=1;jettySize=auto;html=1;entryX=0.5;entryY=0;entryDx=0;entryDy=0;" edge="1" parent="1" source="vZ2ydYzsc5JivmFkv1yq-1" target="vZ2ydYzsc5JivmFkv1yq-36">
          <mxGeometry relative="1" as="geometry" />
        </mxCell>
        <mxCell id="vZ2ydYzsc5JivmFkv1yq-43" value="&lt;font style=&quot;font-size: 37px;&quot;&gt;...&lt;/font&gt;" style="shape=ext;double=1;rounded=1;whiteSpace=wrap;html=1;fillColor=#fff2cc;strokeColor=#d6b656;align=center;verticalAlign=top;" vertex="1" parent="1">
          <mxGeometry x="32.5" y="830" width="135" height="60" as="geometry" />
        </mxCell>
      </root>
    </mxGraphModel>
  </diagram>
</mxfile>
